<?xml version="1.0" standalone="no"?><!DOCTYPE svg PUBLIC "-//W3C//DTD SVG 1.1//EN" "http://www.w3.org/Graphics/SVG/1.1/DTD/svg11.dtd"><svg t="1572092926108" class="icon" viewBox="0 0 1024 1024" version="1.1" xmlns="http://www.w3.org/2000/svg" p-id="19503" xmlns:xlink="http://www.w3.org/1999/xlink" width="200" height="200"><defs><style type="text/css"></style></defs><path d="M771.912 66.652h-68.576a32.336 32.336 0 0 0-32.336 32.332v58.888h133.248V98.984a32.332 32.332 0 0 0-32.336-32.332z" fill="#87796F" p-id="19504"></path><path d="M771.916 60.652h-68.58c-21.136 0-38.332 17.196-38.332 38.332v58.884a6 6 0 0 0 6 6h133.248a6 6 0 0 0 6-6v-58.88c-0.004-21.14-17.2-38.336-38.336-38.336z m26.332 91.22H677V98.988a26.36 26.36 0 0 1 26.332-26.332h68.58a26.36 26.36 0 0 1 26.332 26.332v52.884z" fill="#3A312A" p-id="19505"></path><path d="M853.636 158.64h-232c-0.44 0-0.88 0-1.32 0.04 26.96 0.72 48.64 22.8 48.64 49.96v88c0 27.2-21.68 49.24-48.64 49.96 0.44 0.04 0.88 0.04 1.32 0.04h232c27.6 0 50-22.36 50-50v-88c0-27.6-22.4-50-50-50z" fill="#D7E057" p-id="19506"></path><path d="M853.636 152.64h-232a19.6 19.6 0 0 0-1.876 0.068 6 6 0 0 0 0.396 11.972c24 0.64 42.8 19.952 42.8 43.96v88c0 24.012-18.8 43.324-42.8 43.964a6 6 0 0 0-0.368 11.976c0.616 0.056 1.236 0.064 1.852 0.064h232c30.88 0 56-25.12 56-56v-88c-0.004-30.884-25.128-56.004-56.004-56.004z m44 144c0 24.26-19.74 44-44 44h-199.864c12.96-10.224 21.184-26.084 21.184-44v-88c0-17.916-8.228-33.776-21.188-44h199.868c24.26 0 44 19.74 44 44v88z" fill="#3A312A" p-id="19507"></path><path d="M853.636 440.64h-232c-0.44 0-0.88 0-1.32 0.04 26.96 0.72 48.64 22.8 48.64 49.96v418c0 27.2-21.68 49.24-48.64 49.96 0.44 0.04 0.88 0.04 1.32 0.04h232c27.6 0 50-22.36 50-50v-418c0-27.6-22.4-50-50-50z" fill="#D7E057" p-id="19508"></path><path d="M853.636 434.64h-232a19.6 19.6 0 0 0-1.876 0.068 6 6 0 0 0 0.396 11.972c24 0.64 42.8 19.952 42.8 43.96v418c0 24.012-18.8 43.324-42.8 43.964a6 6 0 0 0-0.368 11.976c0.616 0.056 1.236 0.064 1.852 0.064h232c30.88 0 56-25.12 56-56v-418c-0.004-30.884-25.128-56.004-56.004-56.004z m44 474c0 24.26-19.74 44-44 44h-199.864c12.96-10.224 21.184-26.084 21.184-44v-418c0-17.916-8.228-33.776-21.188-44h199.868c24.26 0 44 19.74 44 44v418z" fill="#3A312A" p-id="19509"></path><path d="M620.32 346.652h234.612v94H620.32z" fill="#8AC6DD" p-id="19510"></path><path d="M854.928 340.652H620.32a6 6 0 0 0-6 6v94a6 6 0 0 0 6 6h234.612a6 6 0 0 0 6-6v-94a6 6 0 0 0-6.004-6z m-6 94H626.32v-82h222.612v82z" fill="#3A312A" p-id="19511"></path><path d="M244.008 104.056c-3.896 46.256-52.096 53.56-52.096 53.56 41.388 1.948 51.7 56.236 51.7 56.236 0.884-38.708 53.284-56.808 53.284-56.808-39.252-2.352-52.888-52.988-52.888-52.988z" fill="#D7E057" p-id="19512"></path><path d="M297.252 151.052c-34.416-2.056-47.328-48.096-47.452-48.56a6 6 0 1 0-11.768 1.06c-3.44 40.86-45.256 47.852-47.016 48.128a6 6 0 0 0 0.616 11.928c36.112 1.7 45.996 50.876 46.092 51.372a6 6 0 0 0 11.888-0.988c0.776-34.036 48.764-51.108 49.252-51.276a6.008 6.008 0 0 0-1.612-11.664zM242.992 192.436c-5.428-12.52-14.836-27.628-30.348-35.504 11.724-5.62 25.636-15.652 32.808-33.092 6.204 12.284 16.8 27.52 33.336 34.888-12.028 6.56-27.692 17.62-35.796 33.708z" fill="#3A312A" p-id="19513"></path><path d="M157.216 171.98c-2.756 32.716-36.848 37.884-36.848 37.884 29.272 1.376 36.568 39.776 36.568 39.776 0.624-27.38 37.688-40.18 37.688-40.18-27.768-1.664-37.408-37.48-37.408-37.48z" fill="#D7E057" p-id="19514"></path><path d="M194.98 203.464c-23.064-1.38-31.888-32.74-31.972-33.056a5.996 5.996 0 1 0-11.768 1.064c-2.316 27.484-30.584 32.268-31.768 32.456a6 6 0 0 0 0.62 11.928c24.14 1.136 30.892 34.576 30.956 34.904a6 6 0 0 0 11.892-0.984c0.52-22.836 33.328-34.536 33.648-34.648a5.996 5.996 0 0 0 3.984-6.488 6.016 6.016 0 0 0-5.592-5.176z m-38.336 27.184c-3.696-7.544-9.36-15.788-17.788-21.12 7.42-4.164 14.788-10.52 19.484-19.664 4.228 7.496 10.616 15.816 19.764 20.892-7.404 4.404-15.956 10.96-21.46 19.892z" fill="#3A312A" p-id="19515"></path><path d="M157.216 65.348c-2.756 32.716-36.848 37.884-36.848 37.884 29.272 1.376 36.568 39.776 36.568 39.776 0.624-27.38 37.688-40.18 37.688-40.18-27.768-1.664-37.408-37.48-37.408-37.48z" fill="#D7E057" p-id="19516"></path><path d="M194.98 96.836c-23.064-1.38-31.888-32.744-31.976-33.06a5.996 5.996 0 1 0-11.768 1.064c-2.316 27.484-30.584 32.268-31.768 32.456a6 6 0 0 0 0.616 11.928c24.14 1.136 30.896 34.576 30.956 34.904a6 6 0 0 0 11.892-0.984c0.52-22.836 33.324-34.536 33.648-34.648a6 6 0 0 0-1.6-11.66z m-38.336 27.18c-3.696-7.544-9.36-15.788-17.788-21.12 7.42-4.168 14.788-10.52 19.484-19.668 4.228 7.496 10.616 15.816 19.764 20.896-7.404 4.404-15.956 10.96-21.46 19.892z" fill="#3A312A" p-id="19517"></path><path d="M537.228 66.652h-68.576a32.336 32.336 0 0 0-32.336 32.332v58.888h133.248V98.984a32.336 32.336 0 0 0-32.336-32.332z" fill="#87796F" p-id="19518"></path><path d="M537.228 60.652h-68.576c-21.136 0-38.332 17.196-38.332 38.332v58.884a6 6 0 0 0 6 6h133.244a6 6 0 0 0 6-6v-58.88c0-21.14-17.2-38.336-38.336-38.336z m26.336 91.22H442.32V98.988a26.36 26.36 0 0 1 26.332-26.332h68.576a26.36 26.36 0 0 1 26.332 26.332v52.884z" fill="#3A312A" p-id="19519"></path><path d="M618.94 158.652h-232c-27.616 0-50 22.384-50 50v88c0 27.616 22.384 50 50 50h232c27.616 0 50-22.384 50-50v-88c0-27.616-22.388-50-50-50z" fill="#F16C7A" p-id="19520"></path><path d="M618.94 152.652h-232c-30.88 0-56 25.12-56 56v15.012a6 6 0 1 0 12 0v-15.012c0-24.26 19.74-44 44-44h232c24.26 0 44 19.74 44 44v88c0 24.26-19.74 44-44 44h-232c-24.26 0-44-19.74-44-44v-16.316a6 6 0 1 0-12 0v16.316c0 30.88 25.12 56 56 56h232c30.88 0 56-25.12 56-56v-88c0-30.88-25.12-56-56-56z" fill="#3A312A" p-id="19521"></path><path d="M618.94 440.652h-232c-27.616 0-50 22.384-50 50v418c0 27.616 22.384 50 50 50h232c27.616 0 50-22.384 50-50v-418c0-27.616-22.388-50-50-50z" fill="#F16C7A" p-id="19522"></path><path d="M618.94 434.652h-232c-30.88 0-56 25.12-56 56v418c0 30.88 25.12 56 56 56h129.18a6 6 0 1 0 0-12H386.94c-24.26 0-44-19.74-44-44v-418c0-24.26 19.74-44 44-44h232c24.26 0 44 19.74 44 44v418c0 24.26-19.74 44-44 44H572a6 6 0 1 0 0 12h46.94c30.88 0 56-25.12 56-56v-418c0-30.88-25.12-56-56-56z" fill="#3A312A" p-id="19523"></path><path d="M385.632 346.652h234.612v94H385.632z" fill="#FCE8CB" p-id="19524"></path><path d="M620.244 340.652H385.632a6 6 0 0 0-6 6v94a6 6 0 0 0 6 6h234.612a6 6 0 0 0 6-6v-94a6 6 0 0 0-6-6z m-6 94H391.632v-82h222.612v82z" fill="#3A312A" p-id="19525"></path><path d="M771.916 72.652h-28.92c14.52 0 26.32 11.8 26.32 26.32v52.92h28.92v-52.92c0-14.52-11.8-26.32-26.32-26.32z" fill="#6B5B51" p-id="19526"></path><path d="M853.636 164.652h-52.92c24.24 0 44 19.72 44 44v88c0 24.28-19.76 44-44 44h52.92c24.24 0 44-19.72 44-44v-88c0-24.28-19.76-44-44-44zM853.636 446.652h-52.92c24.24 0 44 19.72 44 44v418c0 28.5-38.72 44.068-38.72 44.068 0.224-0.024 0.448-0.068 0.68-0.068h46.96c24.24 0 44-19.72 44-44v-418c0-24.28-19.76-44-44-44z" fill="#B9BC39" p-id="19527"></path><path d="M795.996 352.652h52.92v82h-52.92z" fill="#68A8BC" p-id="19528"></path><path d="M537.212 72.652h-28.92c14.56 0 26.36 11.8 26.36 26.32v52.92h28.92v-52.92c0-14.52-11.84-26.32-26.36-26.32z" fill="#6B5B51" p-id="19529"></path><path d="M618.932 164.652h-52.92c24.28 0 44 19.72 44 44v88c0 24.28-19.72 44-44 44h52.92c24.28 0 44-19.72 44-44v-88c0-24.28-19.72-44-44-44zM618.932 446.652h-52.92c24.28 0 44 19.72 44 44v418c0 22.956-17.636 41.812-40.08 43.8v0.588c0.648-0.24 1.344-0.392 2.08-0.392h46.92c24.28 0 44-19.72 44-44v-418c0-24.276-19.72-43.996-44-43.996z" fill="#CE4E61" p-id="19530"></path><path d="M561.332 352.652h52.92v82h-52.92z" fill="#CCAE8B" p-id="19531"></path></svg>